<mxfile host="65bd71144e">
    <diagram id="qgk1fU0fgz7EVPHYbcRY" name="Page-1">
        <mxGraphModel dx="1195" dy="573" grid="1" gridSize="10" guides="1" tooltips="1" connect="1" arrows="1" fold="1" page="1" pageScale="1" pageWidth="850" pageHeight="1100" math="0" shadow="0">
            <root>
                <mxCell id="0"/>
                <mxCell id="1" parent="0"/>
                <mxCell id="4" value="" style="rounded=0;whiteSpace=wrap;html=1;movable=0;resizable=0;rotatable=0;deletable=0;editable=0;connectable=0;" parent="1" vertex="1">
                    <mxGeometry y="150" width="840" height="580" as="geometry"/>
                </mxCell>
                <mxCell id="5" value="&lt;font style=&quot;font-size: 22px;&quot;&gt;DB&lt;/font&gt;" style="text;html=1;align=center;verticalAlign=middle;resizable=0;points=[];autosize=1;strokeColor=none;fillColor=none;strokeWidth=4;" parent="1" vertex="1">
                    <mxGeometry x="395" y="90" width="50" height="40" as="geometry"/>
                </mxCell>
                <mxCell id="7" value="" style="rounded=0;whiteSpace=wrap;html=1;strokeWidth=4;fontSize=22;" parent="1" vertex="1">
                    <mxGeometry x="40" y="215" width="290" height="480" as="geometry"/>
                </mxCell>
                <mxCell id="8" value="Sign-up/Auth" style="text;html=1;strokeColor=none;fillColor=none;align=center;verticalAlign=middle;whiteSpace=wrap;rounded=0;strokeWidth=4;fontSize=22;" parent="1" vertex="1">
                    <mxGeometry x="100" y="185" width="160" height="30" as="geometry"/>
                </mxCell>
                <mxCell id="13" value="" style="rounded=0;whiteSpace=wrap;html=1;strokeWidth=4;fontSize=22;" parent="1" vertex="1">
                    <mxGeometry x="90" y="255" width="180" height="98" as="geometry"/>
                </mxCell>
                <mxCell id="6" value="&lt;div style=&quot;color: rgb(204, 204, 204); background-color: rgb(31, 31, 31); font-family: Consolas, &amp;quot;Courier New&amp;quot;, monospace; font-size: 14px; line-height: 19px;&quot;&gt;users&lt;/div&gt;" style="whiteSpace=wrap;html=1;aspect=fixed;strokeWidth=4;fontSize=22;" parent="1" vertex="1">
                    <mxGeometry x="140" y="263" width="80" height="80" as="geometry"/>
                </mxCell>
                <mxCell id="14" value="" style="rounded=0;whiteSpace=wrap;html=1;strokeWidth=4;fontSize=22;" parent="1" vertex="1">
                    <mxGeometry x="70" y="385" width="230" height="160" as="geometry"/>
                </mxCell>
                <mxCell id="10" value="&lt;div style=&quot;color: rgb(204, 204, 204); background-color: rgb(31, 31, 31); font-family: Consolas, &amp;quot;Courier New&amp;quot;, monospace; font-size: 14px; line-height: 19px;&quot;&gt;driver_accounts&lt;/div&gt;" style="rounded=0;whiteSpace=wrap;html=1;strokeWidth=4;fontSize=22;" parent="1" vertex="1">
                    <mxGeometry x="112.5" y="392" width="145" height="60" as="geometry"/>
                </mxCell>
                <mxCell id="12" value="&lt;div style=&quot;color: rgb(204, 204, 204); background-color: rgb(31, 31, 31); font-family: Consolas, &amp;quot;Courier New&amp;quot;, monospace; font-size: 14px; line-height: 19px;&quot;&gt;independent_driver_accounts&lt;/div&gt;" style="rounded=0;whiteSpace=wrap;html=1;strokeWidth=4;fontSize=22;" parent="1" vertex="1">
                    <mxGeometry x="78.75" y="462" width="212.5" height="60" as="geometry"/>
                </mxCell>
                <mxCell id="15" value="&lt;font style=&quot;font-size: 16px;&quot;&gt;cPORTDriver App&lt;/font&gt;" style="text;html=1;strokeColor=none;fillColor=none;align=center;verticalAlign=middle;whiteSpace=wrap;rounded=0;strokeWidth=4;fontSize=22;" parent="1" vertex="1">
                    <mxGeometry x="120" y="355" width="130" height="30" as="geometry"/>
                </mxCell>
                <mxCell id="16" value="&lt;font style=&quot;font-size: 16px;&quot;&gt;cPORTManager App&lt;/font&gt;" style="text;html=1;strokeColor=none;fillColor=none;align=center;verticalAlign=middle;whiteSpace=wrap;rounded=0;strokeWidth=4;fontSize=22;" parent="1" vertex="1">
                    <mxGeometry x="100" y="223" width="150" height="30" as="geometry"/>
                </mxCell>
                <mxCell id="17" value="" style="rounded=0;whiteSpace=wrap;html=1;strokeWidth=4;fontSize=22;" parent="1" vertex="1">
                    <mxGeometry x="70" y="578" width="230" height="90" as="geometry"/>
                </mxCell>
                <mxCell id="11" value="&lt;div style=&quot;color: rgb(204, 204, 204); background-color: rgb(31, 31, 31); font-family: Consolas, &amp;quot;Courier New&amp;quot;, monospace; font-size: 14px; line-height: 19px;&quot;&gt;&lt;div style=&quot;line-height: 19px;&quot;&gt;partner_accounts&lt;/div&gt;&lt;/div&gt;" style="rounded=0;whiteSpace=wrap;html=1;strokeWidth=4;fontSize=22;" parent="1" vertex="1">
                    <mxGeometry x="112.5" y="593" width="145" height="60" as="geometry"/>
                </mxCell>
                <mxCell id="18" value="&lt;font style=&quot;font-size: 16px;&quot;&gt;cPORTPartner App&lt;/font&gt;" style="text;html=1;strokeColor=none;fillColor=none;align=center;verticalAlign=middle;whiteSpace=wrap;rounded=0;strokeWidth=4;fontSize=22;" parent="1" vertex="1">
                    <mxGeometry x="107.5" y="545" width="150" height="30" as="geometry"/>
                </mxCell>
            </root>
        </mxGraphModel>
    </diagram>
</mxfile>